<?xml version="1.0" encoding="UTF-8"?>
<svg width="26px" height="29px" viewBox="0 0 26 29" version="1.1" xmlns="http://www.w3.org/2000/svg" xmlns:xlink="http://www.w3.org/1999/xlink">
    <title>YJ</title>
    <g id="Iteration-3" stroke="none" stroke-width="1" fill="none" fill-rule="evenodd">
        <g id="Landing-Page---Nav-White" transform="translate(-97.000000, -59.000000)" fill="#4D86B6" fill-rule="nonzero">
            <path d="M108.616211,81 L108.616211,72.6650391 L115.720703,59.5839844 L110.828125,59.5839844 L106.360352,68.4023438 L101.921875,59.5839844 L97,59.5839844 L104.104492,72.8115234 L104.104492,81 L108.616211,81 Z M116.168805,87.2988281 C118.405133,87.2988281 120.094586,86.6445312 121.237164,85.3359375 C122.379742,84.0273438 122.951031,82.1230469 122.951031,79.6230469 L122.951031,79.6230469 L122.951031,59.5839844 L118.410016,59.5839844 L118.410016,79.6523438 C118.410016,80.9707031 118.195172,81.9399414 117.765484,82.5600586 C117.335797,83.1801758 116.622906,83.4902344 115.626812,83.4902344 C114.982281,83.4902344 114.269391,83.3925781 113.488141,83.1972656 L113.488141,83.1972656 L113.488141,86.9765625 C114.249859,87.1914062 115.143414,87.2988281 116.168805,87.2988281 Z" id="YJ"></path>
        </g>
    </g>
</svg>